<svg id="Layer_1" data-name="Layer 1" xmlns="http://www.w3.org/2000/svg" viewBox="0 0 73.04 84.95"><path d="M53.31,45.06H50.65c-.49,3.17-1.2,17.23-1.2,17.23h5.06S53.79,48.23,53.31,45.06Z" transform="translate(0.42 0.15)" fill="#7f7aab" fill-rule="evenodd"/><path d="M50.21,61.57h3.54c-.15-2.77-.67-12.37-1.07-15.78h-1.4c-.4,3.41-.93,13-1.07,15.78ZM54.51,63H49.45a.72.72,0,0,1-.72-.75c0-.58.72-14.14,1.2-17.3a.73.73,0,0,1,.72-.62h2.66A.72.72,0,0,1,54,45c.49,3.16,1.18,16.72,1.21,17.3a.72.72,0,0,1-.72.75Z" transform="translate(0.42 0.15)" fill="#231f20" fill-rule="evenodd"/><path d="M51.78,29.52c.11,2.21-.93,5.21-3.51,6.24l2.18,9.3h3l2.18-9.3c-2.58-1-3.62-4-3.51-6.24Z" transform="translate(0.42 0.15)" fill="#e6e7e8" fill-rule="evenodd"/><path d="M51,44.34h1.91l1.92-8.18A6.29,6.29,0,0,1,52,32.74a6.33,6.33,0,0,1-2.87,3.42L51,44.34Zm2.48,1.45h-3a.74.74,0,0,1-.7-.56l-2.18-9.31a.72.72,0,0,1,.44-.83c2.14-.85,3.15-3.43,3.05-5.53a.69.69,0,0,1,.2-.53.71.71,0,0,1,.52-.23h.39a.68.68,0,0,1,.52.23.69.69,0,0,1,.2.53c-.1,2.1.92,4.68,3.06,5.53a.71.71,0,0,1,.43.83L54.2,45.23A.72.72,0,0,1,53.5,45.79Z" transform="translate(0.42 0.15)" fill="#231f20" fill-rule="evenodd"/><path d="M52,38.1a.75.75,0,0,1,.74.75.74.74,0,0,1-.74.74.75.75,0,0,1-.75-.74A.76.76,0,0,1,52,38.1Z" transform="translate(0.42 0.15)" fill="#231f20" fill-rule="evenodd"/><path d="M52,38.58a.27.27,0,0,0,0,.53.27.27,0,0,0,0-.53Zm0,1.49a1.23,1.23,0,1,1,1.22-1.22A1.23,1.23,0,0,1,52,40.07Z" transform="translate(0.42 0.15)" fill="#231f20" fill-rule="evenodd"/><rect x="51.68" y="29.67" width="1.44" height="9.32" fill="#231f20"/><path d="M41.56,54.73V78.2l9.9,1.62A35.22,35.22,0,0,0,67.11,64.69V60.57Z" transform="translate(0.42 0.15)" fill="#00b9e7" fill-rule="evenodd"/><path d="M41.89,54.81,41.56,57,56,68.05l4.88,5.07a35.53,35.53,0,0,0,6.24-8.43V60.57Z" transform="translate(0.42 0.15)" fill="#00a5cf" fill-rule="evenodd"/><path d="M42.28,77.59l10.26,1.68c-.73.39-1.48.76-2.24,1.09l-8.86-1.44a.72.72,0,0,1-.6-.72V54.73a.72.72,0,0,1,.88-.7l25.55,5.84a.73.73,0,0,1,.56.7v2.69c-.44.93-.93,1.84-1.44,2.73V61.15L42.28,55.63Z" transform="translate(0.42 0.15)" fill="#231f20" fill-rule="evenodd"/><path d="M48.58,67a.72.72,0,0,1-.72-.72v-10a.72.72,0,0,1,1.44,0v10A.72.72,0,0,1,48.58,67Z" transform="translate(0.42 0.15)" fill="#231f20" fill-rule="evenodd"/><path d="M54.69,68.42a.73.73,0,0,1-.72-.73V58a.72.72,0,1,1,1.44,0v9.66A.73.73,0,0,1,54.69,68.42Z" transform="translate(0.42 0.15)" fill="#231f20" fill-rule="evenodd"/><path d="M51.64,63.07a.73.73,0,0,1-.73-.72V57a.73.73,0,0,1,1.45,0v5.31A.72.72,0,0,1,51.64,63.07Z" transform="translate(0.42 0.15)" fill="#231f20" fill-rule="evenodd"/><rect x="18.31" y="43.46" width="4.51" height="22.02" fill="#e31e30"/><path d="M18.61,64.61h3.07V44H18.61V64.61Zm3.79,1.44H17.89a.72.72,0,0,1-.72-.72v-22a.72.72,0,0,1,.72-.72H22.4a.72.72,0,0,1,.72.72v22A.72.72,0,0,1,22.4,66.05Z" transform="translate(0.42 0.15)" fill="#231f20" fill-rule="evenodd"/><path d="M18.15,24.69a19.39,19.39,0,0,1,6.34,12.77c.39,4.5-1.38,6.84-3.92,7.4-2.35.51-4.64-2.18-4.81-5.84C15.53,34,19.29,32.15,18.15,24.69Z" transform="translate(0.42 0.15)" fill="#cbdb2a" fill-rule="evenodd"/><path d="M15.75,38.42l3.47-5.56,1.39,2.61.58-4.22L24.31,36c.08.5.14,1,.18,1.49.39,4.5-1.38,6.84-3.92,7.4-2.35.51-4.64-2.18-4.81-5.84C15.75,38.82,15.75,38.61,15.75,38.42Z" transform="translate(0.42 0.15)" fill="#80c342" fill-rule="evenodd"/><path d="M19.07,26.64A16,16,0,0,1,17.61,34a11.24,11.24,0,0,0-1.13,5,6.31,6.31,0,0,0,2,4.66,2.31,2.31,0,0,0,1.89.5c2.49-.54,3.68-2.9,3.36-6.63a18.69,18.69,0,0,0-4.7-10.88Zm.93,19a3.84,3.84,0,0,1-2.35-.85A7.61,7.61,0,0,1,15,39.06a12.5,12.5,0,0,1,1.23-5.64,14.47,14.47,0,0,0,1.17-8.62.72.72,0,0,1,1.2-.64A20.22,20.22,0,0,1,25.21,37.4c.55,6.36-3,7.83-4.49,8.16A3.53,3.53,0,0,1,20,45.64Z" transform="translate(0.42 0.15)" fill="#231f20" fill-rule="evenodd"/><path d="M39.58,54.2V77.68L24,81.23A35.15,35.15,0,0,1,10.73,72.5V60.8Z" transform="translate(0.42 0.15)" fill="#00b9e7" fill-rule="evenodd"/><path d="M39.24,54.28l.34,2.18L25.15,67.53,16,77a35.51,35.51,0,0,1-5.26-4.53V60.8Z" transform="translate(0.42 0.15)" fill="#00a5cf" fill-rule="evenodd"/><path d="M11.45,61.38V73.23c-.5-.49-1-1-1.44-1.51V60.8a.71.71,0,0,1,.56-.7l28.85-6.6a.71.71,0,0,1,.61.14.74.74,0,0,1,.27.56V77.68a.72.72,0,0,1-.56.7l-14.4,3.29c-.85-.27-1.68-.57-2.5-.91l16-3.66v-22Z" transform="translate(0.42 0.15)" fill="#231f20" fill-rule="evenodd"/><path d="M20.34,69.29a.73.73,0,0,1-.72-.73v-10a.72.72,0,0,1,1.44,0v10A.73.73,0,0,1,20.34,69.29Z" transform="translate(0.42 0.15)" fill="#231f20" fill-rule="evenodd"/><path d="M23.4,63.94a.73.73,0,0,1-.73-.72V58.13a.73.73,0,0,1,1.45,0v5.09A.72.72,0,0,1,23.4,63.94Z" transform="translate(0.42 0.15)" fill="#231f20" fill-rule="evenodd"/><path d="M17.29,65.34a.72.72,0,0,1-.72-.72V59.41a.72.72,0,0,1,1.44,0v5.21A.72.72,0,0,1,17.29,65.34Z" transform="translate(0.42 0.15)" fill="#231f20" fill-rule="evenodd"/><path d="M26.87,29.68,35.2,13.21H37l8.33,16.47V72.42L41,76.55H31.18l-4.31-4.13Z" transform="translate(0.42 0.15)" fill="#fffcd5" fill-rule="evenodd"/><path d="M31.47,75.83h9.26l3.88-3.72V29.85L36.19,13.2c.55,0,1.09,0,1.64,0L46,29.35a.76.76,0,0,1,.08.33V72.42a.71.71,0,0,1-.23.52l-4.31,4.13a.7.7,0,0,1-.5.2H31.18a.72.72,0,0,1-.5-.2l-4.31-4.13a.74.74,0,0,1-.22-.52V29.68a.75.75,0,0,1,.07-.33l8.16-16.11c.54,0,1.08,0,1.63,0L27.59,29.85V72.11Z" transform="translate(0.42 0.15)" fill="#231f20" fill-rule="evenodd"/><path d="M36.1,30.09c-2.72,0-4.92,1.18-4.92,2.64V76.55H41V32.73C41,31.27,38.82,30.09,36.1,30.09Z" transform="translate(0.42 0.15)" fill="#faa61a" fill-rule="evenodd"/><path d="M31.18,66.86l5.73-14.24,3.66-21A1.69,1.69,0,0,1,41,32.73V76.55H31.18Z" transform="translate(0.42 0.15)" fill="#f7941d" fill-rule="evenodd"/><path d="M31.9,75.83h8.4V32.73c0-.91-1.8-1.91-4.2-1.91s-4.2,1-4.2,1.91v43.1ZM41,77.27H31.18a.72.72,0,0,1-.72-.72V32.73c0-1.88,2.48-3.36,5.64-3.36s5.64,1.48,5.64,3.36V76.55A.72.72,0,0,1,41,77.27Z" transform="translate(0.42 0.15)" fill="#231f20" fill-rule="evenodd"/><path d="M41,79.82V32.92c0-1.35,1.88-2.45,4.31-2.61V75.68Z" transform="translate(0.42 0.15)" fill="#f7941d" fill-rule="evenodd"/><path d="M44.61,31.11c-1.74.29-2.87,1.11-2.87,1.81V78.13l2.87-2.75V31.11ZM41,80.54a.73.73,0,0,1-.72-.72V32.92c0-1.74,2.1-3.14,5-3.33a.68.68,0,0,1,.54.19.76.76,0,0,1,.23.53V75.68a.68.68,0,0,1-.23.52l-4.31,4.14A.74.74,0,0,1,41,80.54Z" transform="translate(0.42 0.15)" fill="#231f20" fill-rule="evenodd"/><path d="M31.18,80.78V32.92c0-1.35-1.88-2.45-4.31-2.61V76.64Z" transform="translate(0.42 0.15)" fill="#fdb913" fill-rule="evenodd"/><path d="M27.59,76.34l2.87,2.75V32.92c0-.7-1.13-1.52-2.87-1.81V76.34Zm3.59,5.16a.74.74,0,0,1-.5-.2l-4.31-4.14a.71.71,0,0,1-.22-.52V30.31a.75.75,0,0,1,.22-.53.73.73,0,0,1,.54-.19c2.89.19,5,1.59,5,3.33V80.78a.71.71,0,0,1-.44.66A.67.67,0,0,1,31.18,81.5Z" transform="translate(0.42 0.15)" fill="#231f20" fill-rule="evenodd"/><path d="M33.5,82.84h5.2V65.62A2.61,2.61,0,0,0,36.1,63h0a2.61,2.61,0,0,0-2.6,2.61Z" transform="translate(0.42 0.15)" fill="#231f20" fill-rule="evenodd"/><path d="M34.79,43.07h2.62V38.38a1.32,1.32,0,0,0-1.31-1.32h0a1.32,1.32,0,0,0-1.31,1.32Z" transform="translate(0.42 0.15)" fill="#231f20" fill-rule="evenodd"/><path d="M35,42.83h2.14V38.38a1.07,1.07,0,1,0-2.14,0v4.45Zm2.38.48H34.79a.23.23,0,0,1-.24-.24V38.38a1.55,1.55,0,1,1,3.1,0v4.69A.23.23,0,0,1,37.41,43.31Z" transform="translate(0.42 0.15)" fill="#231f20" fill-rule="evenodd"/><path d="M67.18,43.62l-2.93-8.28c-.36-1-2.8-1-3.16,0l-2.93,8.28V75.55a35.14,35.14,0,0,0,9-11Z" transform="translate(0.42 0.15)" fill="#cbdb2a" fill-rule="evenodd"/><path d="M67.18,46.86,65,60l-3,12a35,35,0,0,0,5.23-7.44Z" transform="translate(0.42 0.15)" fill="#b2d235" fill-rule="evenodd"/><path d="M58.88,43.75V75q-.71.6-1.44,1.17V43.62a.67.67,0,0,1,0-.24l2.93-8.28a2.22,2.22,0,0,1,2.26-1.25h0a2.23,2.23,0,0,1,2.26,1.25l2.92,8.28a.69.69,0,0,1,.05.24V63.11c-.45.94-.93,1.87-1.45,2.76V43.75l-2.88-8.18a1.18,1.18,0,0,0-.9-.28h0c-.57,0-.88.21-.9.29Z" transform="translate(0.42 0.15)" fill="#231f20" fill-rule="evenodd"/><rect x="61.79" y="50.96" width="2.46" height="6.88" fill="#231f20"/><path d="M61.61,57.45h2V51h-2v6.41Zm2.22.48H61.37a.24.24,0,0,1-.24-.24V50.8a.24.24,0,0,1,.24-.24h2.46a.24.24,0,0,1,.24.24v6.89A.24.24,0,0,1,63.83,57.93Z" transform="translate(0.42 0.15)" fill="#231f20" fill-rule="evenodd"/><path d="M67.18,43.62c0,1.18-2,2.13-4.51,2.13s-4.51-1-4.51-2.13h0l2.93-8.28c.36-1,2.8-1,3.16,0Z" transform="translate(0.42 0.15)" fill="#e31e30" fill-rule="evenodd"/><path d="M58.89,43.71C59,44.27,60.51,45,62.67,45s3.63-.76,3.77-1.32l-2.87-8.14a1.18,1.18,0,0,0-.9-.28h0c-.57,0-.88.21-.9.29l-2.88,8.13Zm3.78,2.76c-3,0-5.23-1.22-5.23-2.85a.67.67,0,0,1,0-.24l2.93-8.28a2.22,2.22,0,0,1,2.26-1.25h0a2.23,2.23,0,0,1,2.26,1.25l2.92,8.28a.69.69,0,0,1,.05.24C67.9,45.25,65.65,46.47,62.67,46.47Z" transform="translate(0.42 0.15)" fill="#231f20" fill-rule="evenodd"/><path d="M62.67,35.77a1.19,1.19,0,0,1-1.2-1.2V33.33a1.2,1.2,0,0,1,2.4,0v1.24A1.2,1.2,0,0,1,62.67,35.77Z" transform="translate(0.42 0.15)" fill="#231f20" fill-rule="evenodd"/><path d="M5,48.43,8,40.14c.36-1,2.8-1,3.16,0l2.93,8.29V75.56a35.23,35.23,0,0,1-9-11Z" transform="translate(0.42 0.15)" fill="#cbdb2a" fill-rule="evenodd"/><path d="M14.06,51.67,11.85,64.78l-1.77,7a35.35,35.35,0,0,0,4,3.76Z" transform="translate(0.42 0.15)" fill="#b2d235" fill-rule="evenodd"/><path d="M5.76,48.56V65.9c-.52-.9-1-1.81-1.44-2.76V48.43a1,1,0,0,1,0-.24L7.29,39.9a2.23,2.23,0,0,1,2.26-1.24,2.24,2.24,0,0,1,2.26,1.24l2.93,8.29a1,1,0,0,1,0,.24v27.7c-.49-.38-1-.76-1.44-1.16V48.56l-2.89-8.18c0-.08-.34-.28-.9-.28s-.88.2-.9.28Z" transform="translate(0.42 0.15)" fill="#231f20" fill-rule="evenodd"/><rect x="8.8" y="54.57" width="2.2" height="3.09" fill="#231f20"/><path d="M8.62,57.27h1.72V54.66H8.62v2.61Zm2,.48H8.38a.24.24,0,0,1-.24-.24V54.42a.24.24,0,0,1,.24-.24h2.2a.24.24,0,0,1,.24.24v3.09A.24.24,0,0,1,10.58,57.75Z" transform="translate(0.42 0.15)" fill="#231f20" fill-rule="evenodd"/><rect x="8.8" y="61.11" width="2.2" height="3.09" fill="#231f20"/><path d="M8.62,63.8h1.72V61.2H8.62v2.6Zm2,.48H8.38A.24.24,0,0,1,8.14,64V61a.23.23,0,0,1,.24-.24h2.2a.24.24,0,0,1,.24.24V64A.24.24,0,0,1,10.58,64.28Z" transform="translate(0.42 0.15)" fill="#231f20" fill-rule="evenodd"/><path d="M59.26,74.62A97,97,0,0,0,36.1,72a97.1,97.1,0,0,0-23.16,2.66,35.06,35.06,0,0,0,46.32,0Z" transform="translate(0.42 0.15)" fill="#80c342" fill-rule="evenodd"/><path d="M36.1,72.68a97.57,97.57,0,0,0-22.51,2.5c-.44-.37-.88-.75-1.3-1.15A97.39,97.39,0,0,1,36.1,71.24,97.39,97.39,0,0,1,59.91,74c-.42.4-.85.78-1.3,1.15A97.57,97.57,0,0,0,36.1,72.68Z" transform="translate(0.42 0.15)" fill="#231f20" fill-rule="evenodd"/><path d="M34.79,54.12h2.62V49.43a1.31,1.31,0,0,0-1.31-1.31h0a1.31,1.31,0,0,0-1.31,1.31Z" transform="translate(0.42 0.15)" fill="#231f20" fill-rule="evenodd"/><path d="M35,53.89h2.14V49.43a1.07,1.07,0,0,0-2.14,0v4.46Zm2.38.48H34.79a.24.24,0,0,1-.24-.25V49.43a1.55,1.55,0,0,1,3.1,0v4.69A.24.24,0,0,1,37.41,54.37Z" transform="translate(0.42 0.15)" fill="#231f20" fill-rule="evenodd"/><path d="M14.06,48.43c0,1.18-2,2.13-4.51,2.13S5,49.61,5,48.43H5L8,40.14c.36-1,2.8-1,3.16,0Z" transform="translate(0.42 0.15)" fill="#f7941d" fill-rule="evenodd"/><path d="M5.77,48.52c.15.56,1.62,1.32,3.78,1.32s3.63-.76,3.77-1.32l-2.87-8.14c0-.08-.34-.28-.9-.28s-.88.2-.9.28L5.77,48.52Zm3.78,2.76c-3,0-5.23-1.22-5.23-2.85a1,1,0,0,1,0-.24L7.29,39.9a2.23,2.23,0,0,1,2.26-1.24,2.24,2.24,0,0,1,2.26,1.24l2.93,8.29a1,1,0,0,1,0,.24C14.78,50.06,12.53,51.28,9.55,51.28Z" transform="translate(0.42 0.15)" fill="#231f20" fill-rule="evenodd"/><path d="M9.55,47.5a7.09,7.09,0,0,1-4.1-1.12l1.17-1.53a5.22,5.22,0,0,0,2.93.72,6.25,6.25,0,0,0,2.95-.72l1.13,1.55A7.84,7.84,0,0,1,9.55,47.5Z" transform="translate(0.42 0.15)" fill="#231f20" fill-rule="evenodd"/><rect x="35.8" y="1.85" width="1.44" height="12.32" fill="#231f20"/><polygon points="41.37 3 49.26 3 46.17 6.09 49.26 9.18 41.37 9.18 41.37 3" fill="#80c342" fill-rule="evenodd"/><path d="M41.67,8.3H47.1L45.24,6.45A.75.75,0,0,1,45,5.94a.74.74,0,0,1,.21-.51L47.1,3.57H41.67V8.3Zm7.17,1.45H41A.72.72,0,0,1,40.23,9V2.85A.72.72,0,0,1,41,2.13h7.89a.72.72,0,0,1,.51,1.23L46.77,5.94l2.58,2.58a.7.7,0,0,1,.15.78A.72.72,0,0,1,48.84,9.75Z" transform="translate(0.42 0.15)" fill="#231f20" fill-rule="evenodd"/><rect x="36.52" y="0.72" width="6.75" height="6.18" fill="#ede937"/><path d="M36.82,6h5.31V1.29H36.82V6Zm6,1.45H36.1a.73.73,0,0,1-.72-.72V.57a.72.72,0,0,1,.72-.72h6.75a.73.73,0,0,1,.73.72V6.75A.73.73,0,0,1,42.85,7.47Z" transform="translate(0.42 0.15)" fill="#231f20" fill-rule="evenodd"/><path d="M36.1,84.8a36.52,36.52,0,0,1-7-72.37,1.44,1.44,0,1,1,.55,2.83,33.64,33.64,0,1,0,12.84,0,1.44,1.44,0,1,1,.55-2.83,36.52,36.52,0,0,1-7,72.37Z" transform="translate(0.42 0.15)" fill="#231f20" fill-rule="evenodd"/><path d="M36.1,9.84l5,10a30,30,0,0,1-10.1,0Z" transform="translate(0.42 0.15)" fill="#231f20" fill-rule="evenodd"/></svg>