<?xml version="1.0" encoding="utf-8"?>
<!-- Generator: Adobe Illustrator 25.4.0, SVG Export Plug-In . SVG Version: 6.00 Build 0)  -->
<svg version="1.1" id="Layer_1" xmlns="http://www.w3.org/2000/svg" xmlns:xlink="http://www.w3.org/1999/xlink" x="0px" y="0px"
	 viewBox="0 0 300 130" enable-background="new 0 0 300 130" xml:space="preserve">
<g>
	<g>
		<path fill="#010101" d="M82.4,89.8l4.1,0c0.2,0,0.3,0,0.3,0.1S87,90,87,90.1c0,0.1,0,0.2,0,0.4c0,0.1,0,0.3,0,0.4
			c0,0.1-0.1,0.2-0.1,0.2C86.8,91,86.6,91,86.5,91l-1.4,0l0,4.3c0,0.1,0,0.2,0,0.3c0,0.1,0,0.1-0.1,0.2S84.9,96,84.8,96
			c-0.1,0-0.2,0.1-0.4,0.1c-0.2,0-0.3,0-0.4-0.1c-0.1,0-0.2-0.1-0.2-0.2c0-0.1-0.1-0.2-0.1-0.2c0-0.1,0-0.2,0-0.3l0-4.3l-1.4,0
			c-0.2,0-0.3,0-0.3-0.1c-0.1,0-0.1-0.1-0.1-0.2c0-0.1,0-0.2,0-0.4c0-0.1,0-0.3,0-0.4c0-0.1,0.1-0.1,0.1-0.2
			C82.1,89.8,82.2,89.8,82.4,89.8z"/>
		<path fill="#010101" d="M91.9,90c0-0.1,0.1-0.1,0.2-0.2c0.1,0,0.2-0.1,0.4-0.1c0.1,0,0.3,0,0.3,0c0.1,0,0.1,0.1,0.2,0.1
			c0,0,0.1,0.1,0.1,0.2c0,0.1,0,0.2,0,0.4l0,4.8c0,0.1,0,0.2,0,0.3c0,0.1,0,0.1-0.1,0.2c-0.1,0.2-0.3,0.2-0.6,0.2
			c-0.3,0-0.5-0.1-0.6-0.3c0-0.1,0-0.2,0-0.4l0-1.7l-2,0l0,1.8c0,0.1,0,0.2,0,0.3c0,0.1,0,0.1-0.1,0.2c-0.1,0.2-0.3,0.2-0.6,0.2
			c-0.3,0-0.5-0.1-0.6-0.3c0-0.1,0-0.2,0-0.4l0-4.8c0-0.1,0-0.2,0-0.3c0-0.1,0-0.1,0.1-0.2c0.1-0.2,0.3-0.2,0.6-0.2
			c0.3,0,0.5,0.1,0.6,0.3c0,0.1,0,0.2,0,0.4l0,1.8l2,0l0-1.8c0-0.1,0-0.2,0-0.3C91.8,90.2,91.8,90.1,91.9,90z"/>
		<path fill="#010101" d="M96.1,94.6l2.3,0c0.1,0,0.2,0,0.3,0c0.1,0,0.1,0,0.2,0.1c0.1,0.1,0.2,0.3,0.2,0.7c0,0.4-0.1,0.6-0.3,0.7
			c-0.1,0-0.2,0.1-0.4,0.1l-2.9,0c-0.3,0-0.5-0.1-0.6-0.3c0-0.1,0-0.2,0-0.4l0-4.8c0-0.3,0-0.5,0.1-0.6c0.1-0.1,0.3-0.2,0.5-0.2
			l2.9,0c0.1,0,0.2,0,0.3,0c0.1,0,0.1,0,0.2,0.1c0.1,0.1,0.2,0.3,0.2,0.7c0,0.4-0.1,0.6-0.3,0.7c-0.1,0-0.2,0.1-0.4,0.1l-2.3,0
			l0,0.9l1.5,0c0.1,0,0.2,0,0.3,0c0.1,0,0.1,0,0.2,0.1c0.1,0.1,0.2,0.3,0.2,0.7c0,0.4-0.1,0.6-0.3,0.7c-0.1,0-0.2,0.1-0.4,0.1
			l-1.4,0L96.1,94.6z"/>
		<path fill="#010101" d="M105.9,93c0.8,0.8,1.3,1.5,1.6,1.9c0.2,0.2,0.2,0.4,0.2,0.5c0,0.1-0.1,0.3-0.3,0.5
			c-0.2,0.2-0.4,0.3-0.5,0.3c-0.1,0-0.3-0.1-0.5-0.4l-1.6-2.2l0,1.7c0,0.1,0,0.2,0,0.3c0,0.1,0,0.1-0.1,0.2
			c-0.1,0.2-0.3,0.2-0.6,0.2c-0.3,0-0.5-0.1-0.6-0.3c0-0.1,0-0.2,0-0.4l0-4.8c0-0.1,0-0.2,0-0.3c0-0.1,0-0.1,0.1-0.2
			c0.1-0.2,0.3-0.2,0.6-0.2c0.3,0,0.5,0.1,0.6,0.3c0,0.1,0,0.2,0,0.4l0,1.6c0.7-0.9,1.2-1.6,1.6-2.2c0.2-0.2,0.3-0.4,0.4-0.4
			s0.3,0.1,0.5,0.3c0.2,0.2,0.3,0.4,0.3,0.5c0,0.1-0.1,0.3-0.2,0.5c-0.3,0.4-0.7,0.9-1.3,1.6L105.9,93z"/>
		<path fill="#010101" d="M109.4,90.6c0-0.1,0-0.2,0-0.3c0-0.1,0-0.1,0.1-0.2c0.1-0.2,0.3-0.2,0.6-0.2c0.3,0,0.5,0.1,0.6,0.3
			c0,0.1,0,0.2,0,0.4l0,4.8c0,0.1,0,0.2,0,0.3c0,0.1,0,0.1-0.1,0.2c-0.1,0.2-0.3,0.2-0.6,0.2c-0.3,0-0.5-0.1-0.6-0.3
			c0-0.1,0-0.2,0-0.4L109.4,90.6z"/>
		<path fill="#010101" d="M113,89.8l1.4,0c0.7,0,1.3,0.3,1.9,0.9c0.5,0.6,0.8,1.3,0.8,2.2c0,0.9-0.3,1.6-0.8,2.2
			c-0.5,0.6-1.2,0.9-1.9,0.9l-1.3,0c-0.3,0-0.5-0.1-0.6-0.2c-0.1-0.1-0.1-0.3-0.1-0.6l0-4.8c0-0.1,0-0.2,0-0.3c0-0.1,0-0.1,0.1-0.2
			C112.5,89.9,112.7,89.8,113,89.8z M115.3,94.1c0.3-0.3,0.4-0.7,0.4-1.2c0-0.5-0.1-0.9-0.4-1.2c-0.3-0.3-0.6-0.5-1-0.5l-0.7,0
			l0,3.2l0.7,0C114.7,94.6,115.1,94.4,115.3,94.1z"/>
		<path fill="#010101" d="M119.7,90.8c0,0.3-0.1,0.8-0.2,1.3c-0.1,0.5-0.2,0.8-0.4,0.8s-0.3-0.3-0.4-0.8c-0.1-0.5-0.2-1-0.2-1.4
			c0-0.4,0-0.6,0.1-0.7c0.1-0.1,0.2-0.2,0.4-0.2c0.2,0,0.3,0,0.4,0.1c0.1,0,0.1,0.1,0.2,0.2C119.7,90.2,119.7,90.5,119.7,90.8z"/>
		<path fill="#010101" d="M121.4,95.2c-0.1-0.2-0.2-0.3-0.2-0.5c0-0.1,0.1-0.3,0.3-0.6c0.1-0.1,0.3-0.2,0.4-0.2
			c0.1,0,0.3,0.1,0.6,0.4c0.1,0.1,0.2,0.2,0.3,0.3c0.1,0.1,0.2,0.1,0.4,0.1c0.5,0,0.7-0.2,0.7-0.7c0-0.1-0.1-0.2-0.2-0.3
			c-0.1-0.1-0.3-0.2-0.5-0.2c-0.2,0-0.4-0.1-0.6-0.2c-0.2-0.1-0.4-0.2-0.6-0.3c-0.2-0.1-0.3-0.3-0.5-0.6c-0.1-0.3-0.2-0.6-0.2-0.9
			c0-0.5,0.2-0.9,0.5-1.3c0.3-0.4,0.8-0.6,1.3-0.6c0.3,0,0.6,0,0.8,0.1c0.2,0.1,0.4,0.2,0.5,0.3l0.2,0.2c0.2,0.2,0.2,0.3,0.2,0.4
			c0,0.1-0.1,0.3-0.2,0.5c-0.2,0.3-0.3,0.4-0.5,0.4c-0.1,0-0.2-0.1-0.4-0.2c0,0,0,0-0.1-0.1c0,0-0.1-0.1-0.1-0.1
			c-0.1-0.1-0.2-0.1-0.4-0.1s-0.3,0-0.4,0.1c-0.1,0.1-0.2,0.2-0.2,0.4s0.1,0.3,0.2,0.4c0.1,0.1,0.3,0.2,0.5,0.2
			c0.2,0,0.4,0.1,0.6,0.2c0.2,0.1,0.4,0.2,0.6,0.3c0.2,0.1,0.3,0.3,0.5,0.5c0.1,0.3,0.2,0.6,0.2,0.9c0,0.4-0.1,0.7-0.2,1
			c-0.1,0.3-0.3,0.5-0.5,0.7c-0.4,0.3-0.8,0.5-1.3,0.5c-0.2,0-0.4,0-0.7-0.1c-0.2-0.1-0.4-0.1-0.5-0.2
			C121.7,95.7,121.5,95.5,121.4,95.2L121.4,95.2z"/>
		<path fill="#010101" d="M132.8,90.3l2,4.8c0.1,0.2,0.1,0.3,0.1,0.4c0,0.2-0.1,0.4-0.4,0.6c-0.2,0.1-0.3,0.1-0.4,0.1
			c-0.1,0-0.2,0-0.2-0.1c-0.1-0.1-0.1-0.1-0.1-0.2c0-0.1-0.1-0.1-0.1-0.3l-0.4-0.9l-2,0l-0.4,0.9c0,0.1-0.1,0.2-0.1,0.2
			c0,0.1-0.1,0.1-0.1,0.2c-0.1,0.1-0.1,0.1-0.2,0.1c-0.1,0-0.2,0-0.4-0.1c-0.3-0.2-0.4-0.3-0.4-0.5c0-0.1,0-0.2,0.1-0.4l2-4.8
			c0.1-0.1,0.1-0.2,0.2-0.3c0.1-0.1,0.2-0.1,0.3-0.1C132.4,89.8,132.6,90,132.8,90.3z M132.2,92.4l-0.5,1.2l1,0L132.2,92.4z"/>
		<path fill="#010101" d="M139.4,94.5l0.1-0.1c0.2-0.1,0.3-0.2,0.4-0.2c0.2,0,0.3,0.2,0.5,0.5c0.1,0.2,0.2,0.4,0.2,0.5
			c0,0.1,0,0.2-0.1,0.3c-0.1,0.1-0.1,0.2-0.2,0.2c-0.1,0.1-0.2,0.1-0.3,0.2c-0.1,0.1-0.2,0.1-0.5,0.2c-0.3,0.1-0.5,0.1-0.7,0.1
			s-0.5,0-0.7-0.1c-0.2-0.1-0.5-0.2-0.7-0.4c-0.3-0.2-0.5-0.4-0.7-0.6c-0.2-0.2-0.4-0.6-0.5-0.9c-0.1-0.4-0.2-0.8-0.2-1.2
			c0-0.4,0.1-0.9,0.2-1.2c0.1-0.4,0.3-0.7,0.5-0.9c0.2-0.2,0.4-0.4,0.7-0.6c0.5-0.3,1-0.5,1.5-0.5c0.2,0,0.5,0,0.7,0.1
			c0.2,0.1,0.4,0.2,0.5,0.3l0.2,0.1c0.1,0.1,0.2,0.1,0.2,0.2c0.1,0.1,0.2,0.3,0.2,0.4c0,0.2-0.1,0.3-0.2,0.5
			c-0.2,0.3-0.4,0.5-0.5,0.5c-0.1,0-0.2-0.1-0.4-0.2c-0.2-0.2-0.5-0.3-0.8-0.3c-0.3,0-0.6,0.1-0.9,0.4c-0.1,0.1-0.3,0.3-0.4,0.5
			c-0.1,0.2-0.1,0.5-0.1,0.8c0,0.3,0,0.5,0.1,0.8c0.1,0.2,0.2,0.4,0.4,0.5c0.3,0.3,0.6,0.4,0.9,0.4c0.2,0,0.3,0,0.4-0.1
			C139.2,94.6,139.3,94.5,139.4,94.5z"/>
		<path fill="#010101" d="M142.5,89.8l4.1,0c0.2,0,0.3,0,0.3,0.1s0.1,0.1,0.1,0.2s0,0.2,0,0.4c0,0.1,0,0.3,0,0.4
			c0,0.1-0.1,0.2-0.1,0.2c-0.1,0.1-0.2,0.1-0.4,0.1l-1.4,0l0,4.3c0,0.1,0,0.2,0,0.3c0,0.1,0,0.1-0.1,0.2c0,0.1-0.1,0.1-0.2,0.2
			c-0.1,0-0.2,0.1-0.4,0.1c-0.2,0-0.3,0-0.4-0.1c-0.1,0-0.2-0.1-0.2-0.2c0-0.1-0.1-0.2-0.1-0.2c0-0.1,0-0.2,0-0.3l0-4.3l-1.4,0
			c-0.2,0-0.3,0-0.3-0.1c-0.1,0-0.1-0.1-0.1-0.2c0-0.1,0-0.2,0-0.4c0-0.1,0-0.3,0-0.4c0-0.1,0.1-0.1,0.1-0.2
			C142.2,89.9,142.3,89.8,142.5,89.8z"/>
		<path fill="#010101" d="M148.6,90.6c0-0.1,0-0.2,0-0.3c0-0.1,0-0.1,0.1-0.2c0.1-0.2,0.3-0.2,0.6-0.2c0.3,0,0.5,0.1,0.6,0.3
			c0,0.1,0,0.2,0,0.4l0,4.8c0,0.1,0,0.2,0,0.3c0,0.1,0,0.1-0.1,0.2c-0.1,0.2-0.3,0.2-0.6,0.2c-0.3,0-0.5-0.1-0.6-0.3
			c0-0.1,0-0.2,0-0.4L148.6,90.6z"/>
		<path fill="#010101" d="M156.5,90c0.3,0.2,0.4,0.3,0.4,0.6c0,0.1,0,0.2-0.1,0.4l-2,4.8c-0.1,0.1-0.1,0.2-0.2,0.3
			c-0.1,0.1-0.2,0.1-0.3,0.1l-0.1,0c-0.1,0-0.2,0-0.3-0.1c-0.1-0.1-0.2-0.2-0.2-0.3l-2-4.8c-0.1-0.2-0.1-0.3-0.1-0.4
			c0-0.2,0.1-0.4,0.4-0.6c0.2-0.1,0.3-0.1,0.4-0.1c0.1,0,0.2,0,0.2,0c0,0,0.1,0.1,0.1,0.1c0,0.1,0.1,0.1,0.1,0.2
			c0,0.1,0.1,0.3,0.3,0.7c0.2,0.4,0.3,0.8,0.5,1.3c0.2,0.4,0.3,0.9,0.5,1.2c0.2,0.4,0.2,0.6,0.3,0.7l1.5-3.8c0-0.1,0.1-0.2,0.1-0.3
			c0.1-0.2,0.2-0.2,0.3-0.2C156.2,89.8,156.4,89.9,156.5,90z"/>
		<path fill="#010101" d="M158.5,90.6c0-0.1,0-0.2,0-0.3c0-0.1,0-0.1,0.1-0.2c0.1-0.2,0.3-0.2,0.6-0.2c0.3,0,0.5,0.1,0.6,0.3
			c0,0.1,0,0.2,0,0.4l0,4.8c0,0.1,0,0.2,0,0.3c0,0.1,0,0.1-0.1,0.2c-0.1,0.2-0.3,0.2-0.6,0.2c-0.3,0-0.5-0.1-0.6-0.3
			c0-0.1,0-0.2,0-0.4L158.5,90.6z"/>
		<path fill="#010101" d="M161.8,89.9l4.1,0c0.2,0,0.3,0,0.3,0.1c0.1,0,0.1,0.1,0.1,0.2c0,0.1,0,0.2,0,0.4c0,0.1,0,0.3,0,0.4
			c0,0.1-0.1,0.2-0.1,0.2c-0.1,0.1-0.2,0.1-0.4,0.1l-1.4,0l0,4.3c0,0.1,0,0.2,0,0.3c0,0.1,0,0.1-0.1,0.2c0,0.1-0.1,0.1-0.2,0.2
			c-0.1,0-0.2,0.1-0.4,0.1c-0.2,0-0.3,0-0.4-0.1c-0.1,0-0.2-0.1-0.2-0.2c0-0.1-0.1-0.2-0.1-0.2c0-0.1,0-0.2,0-0.3l0-4.3l-1.4,0
			c-0.2,0-0.3,0-0.3-0.1c-0.1,0-0.1-0.1-0.1-0.2c0-0.1,0-0.2,0-0.4c0-0.1,0-0.3,0-0.4c0-0.1,0.1-0.1,0.1-0.2
			C161.6,89.9,161.7,89.9,161.8,89.9z"/>
		<path fill="#010101" d="M172.3,90c0.2,0.2,0.4,0.4,0.4,0.6c0,0.1-0.1,0.3-0.2,0.5l-1.6,2.8l0,1.6c0,0.1,0,0.2,0,0.3
			c0,0.1,0,0.1-0.1,0.2c0,0.1-0.1,0.1-0.2,0.2c-0.1,0-0.2,0.1-0.4,0.1c-0.2,0-0.3,0-0.4-0.1c-0.1,0-0.2-0.1-0.2-0.2
			c0-0.1-0.1-0.2-0.1-0.2c0-0.1,0-0.2,0-0.3l0-1.6L168,91c-0.1-0.2-0.2-0.3-0.2-0.5c0-0.2,0.1-0.4,0.3-0.5c0.2-0.2,0.4-0.3,0.5-0.3
			c0.1,0,0.2,0,0.2,0.1c0.1,0.1,0.2,0.2,0.3,0.4l1.1,2.1l1.1-2.1c0.1-0.2,0.2-0.3,0.2-0.3c0.1-0.1,0.1-0.1,0.2-0.1
			C171.9,89.8,172.1,89.9,172.3,90z"/>
		<path fill="#010101" d="M179.4,93c0.8,0.8,1.3,1.5,1.6,1.9c0.2,0.2,0.2,0.4,0.2,0.5c0,0.1-0.1,0.3-0.3,0.5s-0.4,0.3-0.5,0.3
			c-0.1,0-0.3-0.1-0.5-0.4l-1.6-2.2l0,1.7c0,0.1,0,0.2,0,0.3c0,0.1,0,0.1-0.1,0.2c-0.1,0.2-0.3,0.2-0.6,0.2c-0.3,0-0.5-0.1-0.6-0.3
			c0-0.1,0-0.2,0-0.4l0-4.8c0-0.1,0-0.2,0-0.3s0-0.1,0.1-0.2c0.1-0.2,0.3-0.2,0.6-0.2c0.3,0,0.5,0.1,0.6,0.3c0,0.1,0,0.2,0,0.4
			l0,1.6c0.7-0.9,1.2-1.6,1.6-2.2c0.2-0.2,0.3-0.4,0.4-0.4c0.1,0,0.3,0.1,0.5,0.3c0.2,0.2,0.3,0.4,0.3,0.5c0,0.1-0.1,0.3-0.2,0.5
			c-0.3,0.4-0.7,0.9-1.3,1.6L179.4,93z"/>
		<path fill="#010101" d="M182.9,90.7c0-0.1,0-0.2,0-0.3c0-0.1,0-0.1,0.1-0.2c0.1-0.2,0.3-0.2,0.6-0.2c0.3,0,0.5,0.1,0.6,0.3
			c0,0.1,0,0.2,0,0.4l0,4.8c0,0.1,0,0.2,0,0.3c0,0.1,0,0.1-0.1,0.2c-0.1,0.2-0.3,0.2-0.6,0.2c-0.3,0-0.5-0.1-0.6-0.3
			c0-0.1,0-0.2,0-0.4L182.9,90.7z"/>
		<path fill="#010101" d="M189.4,90.2c0-0.1,0.1-0.2,0.2-0.2c0.1,0,0.2,0,0.3,0s0.3,0,0.3,0c0.1,0,0.2,0.1,0.2,0.1
			c0,0,0.1,0.1,0.1,0.2c0,0.1,0,0.2,0,0.4l0,4.8c0,0.1,0,0.2,0,0.3c0,0.1,0,0.1-0.1,0.2c-0.1,0.2-0.3,0.2-0.6,0.2
			c-0.2,0-0.3,0-0.4-0.1c-0.1,0-0.1-0.1-0.2-0.2c-1.1-1.7-1.8-2.8-2.2-3.4l0,2.8c0,0.1,0,0.2,0,0.3c0,0.1,0,0.1-0.1,0.2
			c-0.1,0.2-0.3,0.2-0.6,0.2c-0.3,0-0.5-0.1-0.6-0.2c0-0.1-0.1-0.2-0.1-0.2c0-0.1,0-0.2,0-0.3l0-4.8c0-0.2,0-0.4,0.1-0.5
			c0-0.1,0.1-0.2,0.2-0.2c0.1,0,0.2-0.1,0.4-0.1s0.3,0,0.3,0c0.1,0,0.1,0.1,0.2,0.1c0,0,0.1,0.1,0.2,0.2c1,1.6,1.7,2.7,2.1,3.3
			l0-2.9C189.3,90.4,189.4,90.3,189.4,90.2z"/>
		<path fill="#010101" d="M195.1,92.4l1.3,0c0.3,0,0.4,0.1,0.5,0.2c0,0.1,0.1,0.3,0.1,0.5l0,1.9c0,0.2-0.1,0.4-0.2,0.5
			c-0.4,0.5-1,0.7-1.9,0.7c-0.7,0-1.4-0.3-1.9-1c-0.5-0.6-0.8-1.4-0.8-2.3c0-0.9,0.3-1.7,0.8-2.3c0.6-0.6,1.2-0.9,1.9-0.9
			c0.6,0,1.1,0.2,1.6,0.7c0.1,0.1,0.2,0.2,0.2,0.4c0,0.1-0.1,0.3-0.2,0.5c-0.2,0.3-0.4,0.5-0.5,0.5c-0.1,0-0.2-0.1-0.4-0.2
			c-0.2-0.2-0.5-0.2-0.7-0.2c-0.4,0-0.7,0.2-1,0.5c-0.3,0.3-0.4,0.7-0.4,1.2c0,0.5,0.1,0.9,0.4,1.3c0.3,0.3,0.6,0.5,1,0.5
			c0.3,0,0.5,0,0.7-0.2l0-0.9l-0.6,0c-0.2,0-0.3,0-0.3-0.1c-0.1,0-0.1-0.1-0.1-0.2c0-0.1,0-0.2,0-0.4c0-0.2,0-0.3,0-0.4
			c0-0.1,0.1-0.2,0.1-0.2C194.9,92.4,195,92.4,195.1,92.4z"/>
		<path fill="#010101" d="M199.3,89.9l1.4,0c0.7,0,1.3,0.3,1.9,0.9c0.5,0.6,0.8,1.3,0.8,2.2s-0.3,1.6-0.8,2.2
			c-0.5,0.6-1.2,0.9-1.9,0.9l-1.3,0c-0.3,0-0.5-0.1-0.6-0.2c-0.1-0.1-0.1-0.3-0.1-0.6l0-4.8c0-0.1,0-0.2,0-0.3s0-0.1,0.1-0.2
			C198.8,90,199,89.9,199.3,89.9z M201.7,94.2c0.3-0.3,0.4-0.7,0.4-1.2c0-0.5-0.1-0.9-0.4-1.2c-0.3-0.3-0.6-0.5-1-0.5H200l0,3.2h0.7
			C201.1,94.7,201.4,94.5,201.7,94.2z"/>
		<path fill="#010101" d="M207.5,89.9c0.7,0,1.4,0.3,1.9,0.9c0.5,0.6,0.8,1.4,0.8,2.3c0,0.9-0.3,1.7-0.8,2.3c-0.5,0.6-1.1,1-1.9,1
			c-0.7,0-1.4-0.3-1.9-0.9c-0.5-0.6-0.8-1.4-0.8-2.3c0-0.5,0.1-0.9,0.2-1.3c0.1-0.4,0.3-0.8,0.6-1c0.2-0.3,0.5-0.5,0.8-0.7
			C206.8,89.9,207.2,89.9,207.5,89.9z M206.2,93.1c0,0.5,0.1,0.9,0.4,1.2c0.3,0.3,0.6,0.5,0.9,0.5c0.3,0,0.7-0.2,0.9-0.5
			c0.3-0.3,0.4-0.7,0.4-1.2c0-0.5-0.1-0.9-0.4-1.3c-0.3-0.3-0.6-0.5-0.9-0.5c-0.3,0-0.7,0.2-0.9,0.5
			C206.3,92.2,206.2,92.6,206.2,93.1z"/>
		<path fill="#010101" d="M217.5,90.2c0,0.1,0.1,0.2,0.1,0.2c0,0.1,0,0.2,0,0.3l0,4.8c0,0.4-0.1,0.6-0.3,0.7c-0.1,0-0.2,0.1-0.4,0.1
			c-0.1,0-0.3,0-0.3,0c-0.1,0-0.1-0.1-0.2-0.1c0,0-0.1-0.1-0.1-0.2c0-0.1,0-0.2,0-0.4l0-2.9c-0.1,0.2-0.3,0.5-0.5,0.8
			c-0.2,0.4-0.4,0.6-0.5,0.7c-0.1,0.1-0.1,0.2-0.1,0.2s-0.1,0.1-0.2,0.2c-0.1,0.1-0.2,0.1-0.3,0.1c-0.1,0-0.2,0-0.3-0.1
			c-0.1-0.1-0.2-0.1-0.2-0.2l-0.1-0.1c-0.1-0.1-0.3-0.4-0.6-0.9c-0.3-0.5-0.4-0.7-0.5-0.8l0,2.9c0,0.1,0,0.2,0,0.3s0,0.1-0.1,0.2
			c-0.1,0.2-0.3,0.2-0.6,0.2c-0.3,0-0.5-0.1-0.6-0.2c0-0.1-0.1-0.2-0.1-0.2c0-0.1,0-0.2,0-0.3l0-4.8c0-0.1,0-0.2,0-0.3
			c0-0.1,0-0.1,0.1-0.2c0.1-0.1,0.3-0.2,0.6-0.2c0.1,0,0.2,0,0.3,0.1c0.1,0,0.2,0.1,0.2,0.1l0,0.1l1.7,2.6c0.8-1.3,1.4-2.1,1.7-2.6
			c0.1-0.2,0.3-0.2,0.6-0.2C217.3,90,217.5,90,217.5,90.2z"/>
	</g>
	<g>
		<g>
			<path fill-rule="evenodd" clip-rule="evenodd" fill="#6460AB" d="M155.6,55.3c0-0.4,4.7,0.1,5-0.4c0,0,0.3-4.5-0.1-5.1
				c-0.4-0.6-4.6-0.4-4.7-0.3c-0.1,0,0.3-5.7,0.1-5.9c-0.2-0.2-5.5,0.2-5.9,0.6c-0.3,0.4-0.1,5-0.2,5.2c-0.1,0.1-2.7,0-2.9,0
				c-0.2,0-0.2,5.2,0,5.4s2.7,0.2,2.7,0.2c0,0-0.2,7.6-0.3,9.7c0,4.3,2.2,7.1,6.6,7.1c4,0,5.6-2.2,5.6-2.2c0-0.9-0.9-4.9-1.4-5.1
				c-0.5-0.1-1.5,1-2.8,1c-1.2,0-1.9-1-1.9-2.4C155.4,60.6,155.6,55.6,155.6,55.3z"/>
		</g>
		<path fill-rule="evenodd" clip-rule="evenodd" fill="#F69320" d="M175.2,60.7c0,3.1-1.4,4.9-4.1,4.8c-1.8,0-3.6-1.7-3.6-4.8
			c0-2.9,1.4-4.8,4.1-4.8C173.4,56.1,175.2,57.2,175.2,60.7L175.2,60.7z M171.3,49.3c-6,0-9.7,5.4-9.7,10.9c0,7.2,4.3,11.5,9.8,11.5
			c6.2-0.1,9.8-5.2,9.8-10.9C181.1,53.5,176.7,49.3,171.3,49.3z"/>
		<g>
			<defs>
				<path id="SVGID_1_" d="M175.2,60.7c0,3.1-1.4,4.9-4.1,4.8c-1.8,0-3.6-1.7-3.6-4.8c0-2.9,1.4-4.8,4.1-4.8
					C173.4,56.1,175.2,57.2,175.2,60.7L175.2,60.7z M171.3,49.3c-6,0-9.7,5.4-9.7,10.9c0,7.2,4.3,11.5,9.8,11.5
					c6.2-0.1,9.8-5.2,9.8-10.9C181.1,53.5,176.7,49.3,171.3,49.3z"/>
			</defs>
			<clipPath id="SVGID_00000002358110644463122070000012764538897137437090_">
				<use xlink:href="#SVGID_1_"  overflow="visible"/>
			</clipPath>
		</g>
		<path fill-rule="evenodd" clip-rule="evenodd" fill="#00A4CF" d="M196.1,49.3c-3.5,0-5.5,1.9-5.8,2.5c0-0.3,0-2.1,0-2.4
			c0,0-5.8-0.4-5.8-0.2c-0.3,1-0.6,31.6-0.5,31.6c0.7,0.4,6,0.2,6.4-0.1c0.3-0.3,0.2-9.6,0.2-11.1c0.3,0.6,2.4,1.9,5,1.9
			c4.8,0,8.9-4,8.9-11C204.6,53.1,200.6,49.3,196.1,49.3L196.1,49.3z M198,60.5c0,2.7-1.4,4.6-3.8,4.6c-1.9,0-3.7-1.8-3.7-4.7
			c0-2.6,1.2-4.5,3.9-4.5C196.4,56,198,57.5,198,60.5L198,60.5z"/>
		<g>
			<defs>
				<path id="SVGID_00000178893535282327367620000000513484905250289303_" d="M196.1,49.3c-3.5,0-5.5,1.9-5.8,2.5c0-0.3,0-2.1,0-2.4
					c0,0-5.8-0.4-5.8-0.2c-0.3,1-0.6,31.6-0.5,31.6c0.7,0.4,6,0.2,6.4-0.1c0.3-0.3,0.2-9.6,0.2-11.1c0.3,0.6,2.4,1.9,5,1.9
					c4.8,0,8.9-4,8.9-11C204.6,53.1,200.6,49.3,196.1,49.3L196.1,49.3z M198,60.5c0,2.7-1.4,4.6-3.8,4.6c-1.9,0-3.7-1.8-3.7-4.7
					c0-2.6,1.2-4.5,3.9-4.5C196.4,56,198,57.5,198,60.5L198,60.5z"/>
			</defs>
			<clipPath id="SVGID_00000017477824383273252760000007872830622767261071_">
				<use xlink:href="#SVGID_00000178893535282327367620000000513484905250289303_"  overflow="visible"/>
			</clipPath>
		</g>
		<g>
			<path fill-rule="evenodd" clip-rule="evenodd" fill="#E21E31" d="M208.9,49.5C208.6,50,209,71,209,71.2c0.1,0.1,5.6,0.3,5.8,0
				c0.1-0.3,0.4-21.5,0.3-21.6C215,49.3,209.1,49,208.9,49.5L208.9,49.5z M208.6,42.5c0,2.4,1.4,3.7,3.4,3.7c2.1,0,3.6-1.5,3.6-3.4
				c0-2.7-1.5-4.4-3.6-4.4C209.2,38.4,208.6,40.1,208.6,42.5z"/>
		</g>
		<path fill-rule="evenodd" clip-rule="evenodd" fill="#7FC343" d="M217.2,53.9c0,0.5,2.6,3.2,3,3.2c0.3,0,1.5-2,3.9-2
			c3.5,0,3.4,2.6,3.4,4.5c-0.7-0.6-1.8-1.2-3.6-1.2c-3.9,0-6.9,2.5-6.9,6.5c0,3.8,1.8,6.6,6,6.6c3.1,0,4.7-2.1,5-2.4l0.3,1.9
			c0,0,4.9,0.3,5,0c0.1-0.3,0.3-7.6,0.3-12.3c0-6.5-3.7-9.7-8.5-9.7C219.8,49,217.2,53.2,217.2,53.9L217.2,53.9z M222.1,64.8
			c0-1.4,1-2.5,2.5-2.5c1.4,0,2.6,1,2.6,2.5c0,1.3-0.9,2.4-2.6,2.4C223.2,67.2,222.1,66.2,222.1,64.8z"/>
		<g>
			<defs>
				<path id="SVGID_00000057845509204284508320000013290722479389171387_" d="M217.2,53.9c0,0.5,2.6,3.2,3,3.2c0.3,0,1.5-2,3.9-2
					c3.5,0,3.4,2.6,3.4,4.5c-0.7-0.6-1.8-1.2-3.6-1.2c-3.9,0-6.9,2.5-6.9,6.5c0,3.8,1.8,6.6,6,6.6c3.1,0,4.7-2.1,5-2.4l0.3,1.9
					c0,0,4.9,0.3,5,0c0.1-0.3,0.3-7.6,0.3-12.3c0-6.5-3.7-9.7-8.5-9.7C219.8,49,217.2,53.2,217.2,53.9L217.2,53.9z M222.1,64.8
					c0-1.4,1-2.5,2.5-2.5c1.4,0,2.6,1,2.6,2.5c0,1.3-0.9,2.4-2.6,2.4C223.2,67.2,222.1,66.2,222.1,64.8z"/>
			</defs>
			<clipPath id="SVGID_00000154422128399994098340000002334378802113797012_">
				<use xlink:href="#SVGID_00000057845509204284508320000013290722479389171387_"  overflow="visible"/>
			</clipPath>
		</g>
		<g>
			<path fill-rule="evenodd" clip-rule="evenodd" fill="#F69320" d="M90.4,42.2c0-0.5-5.8-2.3-6.2-2.2c-0.3,0-4.1,8.4-5.8,11.9
				c-0.3,0.6-1.2,0.6-1.4,0c-1.4-3.6-4-11.8-4.2-11.9c-0.5-0.2-6.3,1.8-6.3,2.3c0,0.5,7,14.6,8.2,17.1c-0.1,4.8-0.2,9.9-0.1,11.9
				c0,0.4,6.8,0.7,7,0c0.2-1.6,0.2-7.2,0.1-11.8C82.8,57.2,90.4,42.8,90.4,42.2z"/>
		</g>
		<path fill-rule="evenodd" clip-rule="evenodd" fill="#00A4CF" d="M87.8,53.9c0,0.5,2.6,3.2,3,3.2c0.3,0,1.5-2,3.9-2
			c3.5,0,3.4,2.6,3.4,4.5c-0.7-0.6-1.8-1.2-3.6-1.2c-3.9,0-6.9,2.5-6.9,6.5c0,3.8,1.8,6.6,6,6.6c3.1,0,4.7-2.1,5-2.4l0.3,1.9
			c0,0,4.9,0.3,5,0c0.1-0.3,0.3-7.6,0.3-12.3c0-6.5-3.7-9.7-8.5-9.7C90.4,49,87.8,53.2,87.8,53.9L87.8,53.9z M92.7,64.8
			c0-1.4,1-2.5,2.5-2.5c1.4,0,2.6,1,2.6,2.5c0,1.3-0.9,2.4-2.6,2.4C93.7,67.2,92.7,66.2,92.7,64.8z"/>
		<g>
			<defs>
				<path id="SVGID_00000090272790092462077490000017770580755227574935_" d="M87.8,53.9c0,0.5,2.6,3.2,3,3.2c0.3,0,1.5-2,3.9-2
					c3.5,0,3.4,2.6,3.4,4.5c-0.7-0.6-1.8-1.2-3.6-1.2c-3.9,0-6.9,2.5-6.9,6.5c0,3.8,1.8,6.6,6,6.6c3.1,0,4.7-2.1,5-2.4l0.3,1.9
					c0,0,4.9,0.3,5,0c0.1-0.3,0.3-7.6,0.3-12.3c0-6.5-3.7-9.7-8.5-9.7C90.4,49,87.8,53.2,87.8,53.9L87.8,53.9z M92.7,64.8
					c0-1.4,1-2.5,2.5-2.5c1.4,0,2.6,1,2.6,2.5c0,1.3-0.9,2.4-2.6,2.4C93.7,67.2,92.7,66.2,92.7,64.8z"/>
			</defs>
			<clipPath id="SVGID_00000135667833371597124560000010441359536739588230_">
				<use xlink:href="#SVGID_00000090272790092462077490000017770580755227574935_"  overflow="visible"/>
			</clipPath>
		</g>
		<g>
			<path fill-rule="evenodd" clip-rule="evenodd" fill="#7FC343" d="M127,50.5c0-0.3-5.6-1.6-5.8-1.5c-0.2,0-4.4,12.5-4.4,12.5
				c-0.2,0.6-1,0.6-1.2,0c-0.8-2.9-2.4-12.5-2.9-12.5c-0.5,0-5.8,1-5.8,1.3c0,1.1,4.9,15.3,6.3,18.5c-0.4,1.5-3.8,9.5-3.8,9.7
				c0.3,0.5,4.3,2.7,5.8,2.6C115.8,80.4,126.3,53.5,127,50.5z"/>
		</g>
		<path fill-rule="evenodd" clip-rule="evenodd" fill="#E21E31" d="M127.8,53.9c0,0.5,2.6,3.2,3,3.2c0.3,0,1.5-2,3.9-2
			c3.5,0,3.4,2.6,3.4,4.5c-0.7-0.6-1.8-1.2-3.6-1.2c-3.9,0-6.9,2.5-6.9,6.5c0,3.8,1.8,6.6,6,6.6c3.1,0,4.7-2.1,5-2.4l0.3,1.9
			c0,0,4.9,0.3,5,0c0.1-0.3,0.3-7.6,0.3-12.3c0-6.5-3.7-9.7-8.5-9.7C130.4,49,127.8,53.2,127.8,53.9L127.8,53.9z M132.7,64.8
			c0-1.4,1-2.5,2.5-2.5c1.4,0,2.6,1,2.6,2.5c0,1.3-0.9,2.4-2.6,2.4C133.8,67.2,132.7,66.2,132.7,64.8z"/>
	</g>
</g>
</svg>
