<svg id="work-outline-round-24px" xmlns="http://www.w3.org/2000/svg" width="24" height="24" viewBox="0 0 24 24">
  <path id="Path_617" data-name="Path 617" d="M0,0H24V24H0Z" fill="none"/>
  <path id="Path_618" data-name="Path 618" d="M14,6V4H10V6ZM4,9v9a1,1,0,0,0,1,1H19a1,1,0,0,0,1-1V9a1,1,0,0,0-1-1H5A1,1,0,0,0,4,9ZM20,6a1.993,1.993,0,0,1,2,2V19a1.993,1.993,0,0,1-2,2H4a1.993,1.993,0,0,1-2-2L2.01,8A1.985,1.985,0,0,1,4,6H8V4a1.993,1.993,0,0,1,2-2h4a1.993,1.993,0,0,1,2,2V6Z" fill="#655fa9"/>
</svg>
