<svg xmlns="http://www.w3.org/2000/svg" width="20" height="20" viewBox="0 0 20 20">
  <path id="Path_620" data-name="Path 620" d="M12,2A10,10,0,1,0,22,12,10,10,0,0,0,12,2Zm0,18a8,8,0,1,1,8-8A8.011,8.011,0,0,1,12,20Zm-1-4h2v2H11Zm1.61-9.96A4,4,0,0,0,8.18,8.83.907.907,0,0,0,9.05,10h.2a.963.963,0,0,0,.88-.67,2,2,0,0,1,2.3-1.28A2.023,2.023,0,0,1,14,10.15c-.1,1.34-1.62,1.63-2.45,2.88,0,.01-.01.01-.01.02s-.02.03-.03.05a3.331,3.331,0,0,0-.25.5c-.01.03-.03.05-.04.08a.637.637,0,0,0-.02.07A3.718,3.718,0,0,0,11,15h2a2.124,2.124,0,0,1,.28-1.07c.02-.03.03-.06.05-.09a2.758,2.758,0,0,1,.28-.39c.01-.01.02-.03.03-.04a3.514,3.514,0,0,1,.33-.34c.96-.91,2.26-1.65,1.99-3.56a4.075,4.075,0,0,0-3.35-3.47Z" transform="translate(-2 -2)" fill="#f6931e"/>
</svg>
