<svg id="share-round-24px" xmlns="http://www.w3.org/2000/svg" width="40" height="40" viewBox="0 0 40 40">
  <path id="Path_623" data-name="Path 623" d="M0,0H40V40H0Z" fill="none"/>
  <path id="Path_624" data-name="Path 624" d="M28.044,25.492a4.864,4.864,0,0,0-3.272,1.285l-11.9-6.924a5.458,5.458,0,0,0,.15-1.168,5.458,5.458,0,0,0-.15-1.168l11.771-6.857a4.994,4.994,0,1,0-1.6-3.654,5.458,5.458,0,0,0,.15,1.168L11.415,15.031a5.005,5.005,0,1,0,0,7.308L23.3,29.279a4.7,4.7,0,0,0-.134,1.084,4.875,4.875,0,1,0,4.875-4.872Z" transform="translate(1.974 1.316)" fill="#e31e30"/>
</svg>
